<?xml version="1.0" standalone="no"?>
<!DOCTYPE svg PUBLIC "-//W3C//DTD SVG 20010904//EN"
 "http://www.w3.org/TR/2001/REC-SVG-20010904/DTD/svg10.dtd">
<svg version="1.0" xmlns="http://www.w3.org/2000/svg"
 width="960.000000pt" height="697.000000pt" viewBox="0 0 960.000000 697.000000"
 preserveAspectRatio="xMidYMid meet">

<g transform="translate(0.000000,697.000000) scale(0.100000,-0.100000)"
fill="#000000" stroke="none">
<path d="M0 3485 l0 -3485 4800 0 4800 0 0 3485 0 3485 -4800 0 -4800 0 0
-3485z m2787 3089 c-3 -3 -12 -4 -19 -1 -8 3 -5 6 6 6 11 1 17 -2 13 -5z m50
-31 c22 -33 22 -123 1 -155 -14 -22 -22 -23 -122 -23 -59 0 -98 2 -87 5 17 4
14 8 -19 24 -44 21 -49 34 -6 15 20 -9 32 -9 51 -1 27 12 49 56 41 79 -3 8 -1
11 4 8 6 -3 10 -13 10 -21 0 -8 7 -14 15 -14 8 0 15 -5 15 -11 0 -5 5 -7 11
-3 8 5 8 8 0 14 -9 5 -8 10 4 20 8 7 15 27 15 44 1 28 2 29 12 11 6 -10 15
-33 20 -50 5 -22 7 -14 4 28 -5 62 4 71 31 30z m36 -128 c-7 -21 -13 -19 -13
6 0 11 4 18 10 14 5 -3 7 -12 3 -20z m-316 9 c-3 -3 -12 -4 -19 -1 -8 3 -5 6
6 6 11 1 17 -2 13 -5z m-126 -42 c-20 -20 -38 -36 -40 -34 -6 3 61 72 70 72 4
0 -9 -17 -30 -38z m164 -7 c6 -2 -17 -3 -50 -4 -33 0 -69 4 -80 8 -19 8 107 4
130 -4z m64 -67 c44 -14 78 -19 110 -15 26 3 52 3 57 -1 6 -4 24 -30 41 -58
l31 -52 -29 -6 c-16 -3 -29 -10 -29 -15 0 -10 10 -14 62 -25 27 -6 70 -66 48
-66 -5 0 -10 6 -10 14 0 8 -4 17 -9 20 -12 8 -72 -17 -68 -29 2 -5 24 -21 50
-33 40 -21 74 -26 249 -38 112 -8 217 -17 235 -20 30 -4 31 -6 21 -34 -5 -17
-17 -30 -26 -30 -13 0 -12 3 4 16 18 14 18 14 -6 3 -14 -7 -45 -29 -70 -50
-70 -58 -165 -101 -235 -106 -56 -5 -63 -3 -99 26 -45 36 -66 39 -90 12 -38
-42 7 -120 94 -161 l51 -24 -3 -60 c-3 -56 -5 -62 -33 -76 -20 -10 -59 -15
-120 -15 -114 1 -176 25 -240 97 l-45 50 23 18 c20 17 21 20 6 35 -13 13 -21
15 -37 6 -11 -6 -27 -9 -34 -6 -20 8 -68 -32 -68 -56 0 -11 5 -29 11 -41 l11
-20 22 21 23 22 33 -158 c18 -87 38 -170 46 -184 20 -41 70 -77 126 -94 57
-16 165 -20 187 -6 10 6 20 3 32 -12 l17 -22 27 25 c28 26 28 36 10 126 -6 27
-2 36 25 61 31 29 32 33 38 139 5 92 7 102 13 64 11 -66 10 -216 -1 -284 -26
-158 -59 -214 -143 -242 -68 -22 -78 -32 -38 -40 l32 -7 -20 -21 c-11 -12 -27
-38 -36 -59 -16 -38 -45 -51 -45 -20 0 57 -69 133 -120 133 -29 0 -157 44
-236 80 -60 28 -64 33 -63 63 l1 32 10 -28 c6 -18 16 -27 27 -25 14 3 16 19
16 108 -1 176 -37 707 -50 743 -12 30 -43 21 -53 -15 l-9 -33 -4 43 c-3 28 -1
42 7 42 16 0 50 56 58 95 4 20 -1 55 -14 95 -11 36 -20 68 -20 72 0 10 59 40
95 48 37 9 73 4 154 -22z m-270 -47 c0 -12 -3 -11 -9 4 -5 11 -9 15 -9 8 -1
-6 7 -25 17 -42 15 -28 15 -33 2 -41 -31 -20 -50 -12 -51 23 -2 42 2 80 8 90
7 12 43 -23 42 -42z m-92 -47 c-3 -3 -12 -4 -19 -1 -8 3 -5 6 6 6 11 1 17 -2
13 -5z m110 -86 c-2 -13 -4 -5 -4 17 -1 22 1 32 4 23 2 -10 2 -28 0 -40z m-7
-38 c0 -5 -5 -10 -11 -10 -5 0 -7 5 -4 10 3 6 8 10 11 10 2 0 4 -4 4 -10z
m-58 -267 c10 -9 18 -29 18 -45 0 -25 -2 -27 -19 -18 -37 19 -69 12 -79 -17
l-9 -28 -8 38 c-14 70 48 115 97 70z m1040 -16 c-12 -13 -19 -27 -15 -32 5 -4
2 -5 -5 -1 -11 6 -8 13 9 32 12 13 25 24 27 24 3 0 -4 -10 -16 -23z m-272
-167 c0 -5 -2 -10 -4 -10 -3 0 -8 5 -11 10 -3 6 -1 10 4 10 6 0 11 -4 11 -10z
m755 -66 c17 -33 20 -63 23 -206 l4 -168 -43 0 -42 0 6 128 c4 70 7 165 7 210
0 94 11 103 45 36z m3365 -88 c0 14 51 15 67 2 7 -6 22 -8 34 -5 15 4 19 2 15
-9 -3 -9 1 -14 14 -14 17 0 25 -15 22 -41 -1 -4 11 -10 26 -14 42 -10 72 -33
72 -55 0 -24 -17 -26 -42 -3 -11 10 -34 17 -55 16 -27 -1 -37 3 -41 19 -3 12
-10 17 -19 14 -9 -4 -17 2 -20 14 -4 15 -11 19 -24 15 -12 -4 -21 -1 -25 9 -3
8 -12 12 -19 10 -18 -7 -49 37 -33 47 7 5 16 3 20 -4 5 -8 8 -8 8 -1z m-80
-52 c55 -2 79 -15 151 -78 l56 -49 -29 -53 c-45 -82 -47 -140 -9 -257 36 -114
38 -145 11 -180 -23 -29 -26 -57 -8 -75 19 -19 45 -14 65 12 15 19 21 21 31
10 7 -8 24 -11 44 -8 43 7 67 -12 74 -57 11 -67 -51 -150 -111 -148 -14 0 -15
2 -5 6 45 14 61 29 71 65 5 22 7 48 4 59 -10 32 -51 52 -90 46 -55 -9 -74 -25
-255 -217 -38 -40 -54 -50 -103 -60 -88 -18 -177 5 -242 62 -40 34 -85 117
-85 155 0 12 -8 26 -17 32 -17 9 -17 11 2 30 l20 21 64 -26 c49 -20 77 -25
122 -22 48 2 60 0 64 -13 3 -9 14 -24 25 -34 18 -16 21 -17 45 -1 39 26 30 74
-22 124 -28 26 -55 28 -73 7 -19 -23 -69 -18 -138 15 -74 35 -87 37 -78 13 7
-17 6 -17 -10 -1 -17 17 -17 19 2 44 11 15 27 28 36 30 27 4 94 63 114 100 10
19 26 34 36 34 9 0 24 7 33 16 15 15 16 15 10 -8 -7 -29 15 -53 42 -44 10 3
29 23 43 43 19 28 25 49 25 92 0 31 -4 65 -8 76 -5 11 -1 8 8 -7 19 -33 35
-36 35 -7 0 38 -50 109 -76 109 -9 0 -7 -11 8 -37 17 -28 18 -35 6 -25 -26 21
-107 5 -142 -27 l-28 -26 16 32 c23 47 68 95 143 154 47 38 63 57 60 70 -4 13
-1 17 6 12 7 -4 32 -8 57 -9z m-3162 -191 c3 -47 1 -51 -17 -46 -32 8 -35 107
-2 101 12 -2 17 -17 19 -55z m80 20 c13 -25 25 -145 16 -166 -3 -9 -14 -17
-23 -17 -14 0 -16 14 -16 100 0 98 5 117 23 83z m-147 -100 c16 -10 28 -22 26
-27 -4 -11 -93 -44 -123 -45 -29 -1 -39 -39 -17 -63 9 -10 30 -18 49 -18 18 0
35 -3 37 -8 3 -4 0 -28 -7 -53 l-11 -46 -49 14 -49 14 6 82 c8 110 22 155 50
160 44 9 59 7 88 -10z m2916 -30 c9 -12 9 -20 0 -36 -49 -85 -85 -88 -150 -12
l-47 54 32 5 c18 3 44 7 58 10 40 6 94 -4 107 -21z m-2807 -120 c0 -45 -17
-80 -46 -99 -20 -14 -20 -12 -20 44 1 31 -3 65 -8 75 -7 15 -3 17 33 17 41 0
41 0 41 -37z m40 -98 c0 -5 -5 -3 -10 5 -5 8 -10 10 -10 5 0 -6 -9 -16 -21
-23 -19 -12 -19 -11 2 18 22 28 39 26 39 -5z m-235 -35 c10 -15 -34 -80 -49
-74 -11 4 -9 14 8 45 22 40 30 46 41 29z m-1545 -182 c-24 -112 -72 -268 -95
-308 -29 -51 -16 14 30 149 25 73 51 165 58 206 7 44 15 71 20 66 6 -6 0 -52
-13 -113z m600 108 c0 -2 -9 -6 -20 -9 -11 -3 -20 -1 -20 4 0 5 9 9 20 9 11 0
20 -2 20 -4z m457 -278 c65 -70 75 -100 24 -74 -67 35 -152 168 -166 261 -6
37 -3 34 36 -39 23 -43 71 -109 106 -148z m-1767 152 c19 -15 63 -42 97 -60
64 -34 87 -58 99 -104 7 -31 5 -32 -43 -6 -21 11 -46 20 -55 20 -13 0 -18 8
-18 30 0 24 -8 35 -41 56 -39 24 -129 109 -129 121 0 7 44 -21 90 -57z m-230
36 c0 -9 -7 -12 -20 -9 -11 3 -20 9 -20 14 0 5 9 9 20 9 11 0 20 -6 20 -14z
m2407 -47 c-13 -30 -258 -321 -265 -314 -9 9 177 272 233 331 29 30 48 20 32
-17z m-2289 -108 c2 -35 5 -68 8 -73 3 -4 1 -8 -4 -8 -18 0 -113 110 -132 152
-28 62 -6 61 50 -3 27 -30 51 -51 55 -47 4 4 -13 32 -40 63 l-47 56 54 -38 54
-37 2 -65z m6792 98 c0 -5 -4 -8 -9 -5 -5 3 -11 0 -14 -8 -3 -7 -21 -16 -39
-20 -19 -3 -59 -22 -88 -40 -30 -19 -56 -33 -58 -31 -11 11 45 67 90 89 53 26
118 35 118 15z m-7358 -13 c13 0 16 -6 12 -21 -6 -25 29 -124 64 -180 14 -22
43 -57 66 -79 l41 -38 -53 -48 c-43 -38 -53 -53 -47 -69 4 -13 15 -21 29 -21
17 0 27 -9 36 -29 15 -37 8 -48 -44 -72 -47 -21 -97 -24 -114 -7 -15 15 -38
-4 -47 -39 -8 -35 17 -63 43 -47 9 6 17 17 17 25 0 20 15 29 50 29 17 0 50 9
74 20 53 24 51 24 51 1 0 -11 -13 -28 -30 -38 -30 -17 -39 -33 -20 -33 5 0 14
-8 19 -18 15 -29 -4 -91 -40 -128 -37 -38 -47 -42 -45 -16 1 15 -8 17 -69 17
-88 0 -99 9 -189 158 -89 148 -99 225 -38 308 35 46 154 277 165 317 5 20 10
22 29 16 13 -4 31 -8 40 -8z m7738 4 c0 -5 7 -10 15 -10 22 0 98 -40 112 -59
7 -9 13 -23 13 -32 0 -8 9 -33 19 -55 23 -47 19 -57 -10 -20 -12 15 -23 25
-25 24 -2 -2 3 -26 11 -53 19 -63 19 -125 -1 -175 -18 -45 -44 -54 -44 -15 0
17 -4 23 -14 19 -11 -4 -14 14 -18 90 -4 87 -10 117 -23 105 -2 -3 0 -23 6
-45 24 -84 -9 -245 -58 -286 -18 -14 -17 -9 7 132 12 64 7 169 -9 212 -6 17
-9 9 -15 -38 -8 -71 -34 -154 -48 -154 -5 0 -7 12 -4 28 5 25 18 120 30 205
21 162 -74 -125 -109 -327 -9 -50 -18 -183 -22 -296 -3 -113 -7 -207 -9 -209
-9 -10 -14 12 -25 108 -21 199 39 620 108 755 8 15 10 25 4 21 -21 -12 -40
-62 -85 -220 -25 -87 -51 -162 -57 -166 -7 -4 -15 -36 -19 -70 l-7 -64 -2 55
c0 30 6 80 14 110 18 68 19 122 3 139 -8 9 -9 11 -1 7 7 -4 15 12 23 47 25
105 108 228 144 214 20 -8 16 16 -4 25 -8 4 11 7 43 7 32 1 57 -3 57 -9z
m-133 -6 c-3 -3 -12 -4 -19 -1 -8 3 -5 6 6 6 11 1 17 -2 13 -5z m-214 -36 c-9
-11 -30 -27 -44 -35 -16 -9 -25 -22 -22 -30 4 -11 9 -11 22 -1 13 10 14 10 4
-2 -18 -19 -46 -22 -39 -4 6 16 -10 19 -20 3 -4 -8 -9 -8 -17 0 -8 8 -5 17 13
34 l24 22 -18 -22 c-11 -13 -15 -23 -9 -23 13 0 49 40 43 49 -3 3 2 6 11 6 8
0 23 8 33 18 24 24 42 10 19 -15z m177 28 c0 -2 -7 -7 -16 -10 -8 -3 -12 -2
-9 4 6 10 25 14 25 6z m-6900 -50 c0 -1 -9 -2 -20 -2 -10 0 -17 2 -15 5 3 2
-1 11 -8 19 -9 11 -4 11 16 -2 15 -10 27 -19 27 -20z m6760 19 c-7 -8 -17 -15
-23 -15 -6 0 -2 7 9 15 25 19 30 19 14 0z m-5446 -39 c-3 -15 -8 -25 -11 -23
-2 3 -1 17 3 31 3 15 8 25 11 23 2 -3 1 -17 -3 -31z m5476 21 c0 -1 -24 -25
-52 -52 l-53 -50 50 53 c46 48 55 57 55 49z m-1029 -53 c12 -14 11 -16 -5 -13
-11 2 -21 10 -24 17 -5 17 13 15 29 -4z m771 -18 c10 5 10 4 2 -5 -8 -9 -17
-9 -37 0 -15 7 -27 16 -27 21 0 5 11 1 25 -8 13 -8 30 -12 37 -8z m-6394 -26
c36 -22 58 -60 48 -86 -7 -19 -48 -16 -109 10 -38 16 -50 35 -19 32 12 -1 18
8 20 32 4 37 15 39 60 12z m4980 -58 c28 -42 54 -93 57 -112 5 -28 4 -31 -5
-18 -6 10 -17 15 -26 11 -19 -7 -45 26 -38 50 8 26 -14 47 -48 47 -17 0 -66
-19 -110 -42 l-80 -41 -25 31 c-13 18 -32 32 -41 32 -24 1 217 112 259 119 3
1 28 -34 57 -77z m649 72 c-3 -3 -12 -4 -19 -1 -8 3 -5 6 6 6 11 1 17 -2 13
-5z m-4480 -46 c-3 -8 -6 -5 -6 6 -1 11 2 17 5 13 3 -3 4 -12 1 -19z m5318 4
c-3 -3 -11 0 -18 7 -9 10 -8 11 6 5 10 -3 15 -9 12 -12z m73 -7 c-6 -14 -13
-23 -15 -21 -5 5 15 46 22 46 3 0 -1 -11 -7 -25z m-5071 -102 c-2 -21 -4 -6
-4 32 0 39 2 55 4 38 2 -18 2 -50 0 -70z m-1164 26 c32 -10 78 -20 103 -21 35
-1 44 -5 44 -19 0 -9 6 -20 13 -22 6 -3 -8 -6 -32 -6 -69 -1 -193 36 -235 71
-44 36 -38 54 12 32 20 -9 63 -25 95 -35z m6170 9 c3 -10 7 -10 17 -1 17 15
40 5 40 -17 0 -27 19 -35 34 -15 12 16 15 15 40 -17 l26 -36 -39 -73 c-104
-196 -127 -432 -56 -587 27 -59 108 -167 132 -177 9 -3 24 -3 34 0 20 7 25 -5
10 -20 -17 -18 -53 -119 -53 -147 1 -40 -28 -36 -56 8 -27 41 -90 73 -144 74
-51 0 -48 15 7 41 52 24 65 39 36 39 -13 0 -18 5 -15 13 3 8 -2 20 -11 27 -23
19 -18 38 13 42 48 5 30 30 -38 52 -77 25 -146 69 -175 112 -12 17 -27 57 -34
88 -10 44 -16 56 -32 56 -24 0 -26 35 -1 49 16 9 16 10 -3 17 -19 8 -19 8 3
14 13 3 33 22 45 43 l21 37 -37 38 c-44 45 -48 78 -11 92 14 6 35 10 47 10 18
0 35 21 80 99 82 141 108 171 120 139z m-926 -24 c4 -11 8 -12 13 -4 5 9 9 9
14 1 4 -6 1 -13 -6 -15 -85 -27 -116 -41 -179 -82 -41 -26 -102 -76 -136 -111
-40 -42 -64 -59 -69 -52 -5 8 -3 9 6 4 10 -6 12 -4 7 8 -6 15 56 106 74 108 5
1 15 2 22 3 6 0 12 7 12 15 0 7 16 25 34 40 19 14 31 20 27 12 -6 -9 -5 -12 5
-9 8 3 14 10 14 16 0 12 34 41 50 42 6 0 -3 -9 -20 -20 -42 -28 -30 -25 39 10
32 17 66 30 75 30 14 0 14 2 1 10 -10 7 -11 10 -2 10 7 0 15 -7 19 -16z
m-4060 -31 c-3 -10 -5 -4 -5 12 0 17 2 24 5 18 2 -7 2 -21 0 -30z m4012 33
c-2 -2 -15 -9 -29 -15 -24 -11 -24 -11 -6 3 16 13 49 24 35 12z m-863 -20 c5
-12 -14 -85 -52 -204 -5 -15 -4 -15 6 -2 9 12 10 10 4 -10 -3 -14 -11 -32 -16
-40 -6 -11 -7 -9 -3 8 4 12 4 22 1 22 -10 0 -75 -216 -90 -300 -21 -120 -29
-220 -18 -220 5 0 24 5 41 11 25 9 30 14 19 21 -9 7 -8 8 6 4 30 -10 340 119
329 137 -3 5 -2 7 4 4 5 -3 36 5 69 19 32 14 46 23 29 19 -22 -4 -26 -3 -15 5
8 5 22 10 30 10 9 0 23 21 34 52 11 31 35 69 57 92 21 21 36 42 33 47 -3 5 2
9 10 9 30 0 25 -18 -18 -62 -45 -48 -56 -78 -56 -159 l0 -48 -74 -40 c-42 -24
-87 -41 -105 -41 -34 0 -39 -10 -17 -33 13 -13 4 -15 -67 -15 -103 -1 -126 -4
-124 -15 1 -5 -4 -12 -12 -15 -9 -3 -11 0 -6 9 5 8 4 11 -1 6 -5 -5 -9 -12
-10 -15 -6 -47 -54 -72 -137 -72 -96 0 -101 6 -94 126 7 115 23 179 114 439
86 249 111 297 129 251z m2561 -58 c-3 -7 -5 -2 -5 12 0 14 2 19 5 13 2 -7 2
-19 0 -25z m-2242 12 c3 -5 -1 -10 -9 -10 -9 0 -16 5 -16 10 0 6 4 10 9 10 6
0 13 -4 16 -10z m648 -13 c7 -19 -4 -34 -33 -46 -23 -10 -23 -11 10 -8 19 1
35 -2 35 -8 0 -18 48 -74 58 -68 6 3 8 2 4 -3 -3 -5 15 -35 39 -67 24 -33 59
-87 78 -120 53 -94 217 -485 218 -518 1 -15 4 -26 8 -24 5 3 10 -2 13 -10 4
-10 1 -12 -11 -8 -13 5 -14 3 -6 -6 6 -7 18 -13 25 -14 15 -3 19 -9 19 -31 0
-13 -88 -73 -101 -69 -10 3 -53 -46 -56 -65 -8 -50 -16 -82 -20 -82 -9 0 -54
57 -73 91 -11 20 -39 117 -63 215 -40 164 -58 214 -104 299 -13 24 -14 37 -5
69 13 52 1 78 -36 74 -23 -3 -35 -24 -127 -223 -55 -121 -122 -260 -148 -310
-75 -140 -170 -286 -184 -280 -7 2 -12 -1 -10 -8 1 -7 -12 -13 -31 -15 -69 -7
-237 129 -290 234 -28 55 -29 61 -16 87 8 15 21 27 29 27 19 0 19 5 -2 38 -16
25 -14 24 27 -9 51 -42 130 -159 90 -134 -19 12 -10 -1 22 -31 17 -16 28 -23
24 -16 -4 6 -3 12 2 12 13 0 33 -25 26 -32 -3 -3 0 -9 7 -14 8 -4 10 -3 5 4
-10 17 6 15 32 -4 l23 -16 -26 -34 c-33 -43 -32 -73 3 -49 12 9 29 31 38 48 9
18 48 81 87 141 85 133 132 232 187 395 46 138 69 270 54 315 l-10 28 -30 -28
c-17 -16 -39 -51 -49 -79 -10 -27 -26 -58 -36 -67 -16 -16 -17 -15 -16 18 1
41 -16 63 -36 46 -16 -14 -27 -6 -27 18 0 17 58 130 67 130 3 0 3 -7 -1 -15
-8 -22 2 -18 15 6 8 15 8 19 0 15 -23 -15 -9 10 26 46 36 37 62 51 47 26 -5
-9 -2 -8 9 1 10 8 15 16 12 19 -6 7 15 32 27 32 5 0 6 -4 3 -10 -10 -16 1 -11
16 7 12 15 12 16 -1 8 -13 -8 -13 -7 -1 8 15 19 36 23 25 5 -4 -7 -3 -8 5 -4
6 4 9 11 6 16 -6 10 81 59 106 60 9 0 19 -6 22 -13z m-4176 -29 c-3 -7 -5 -2
-5 12 0 14 2 19 5 13 2 -7 2 -19 0 -25z m5810 -60 c-3 -7 -5 -2 -5 12 0 14 2
19 5 13 2 -7 2 -19 0 -25z m-2626 -25 c-12 -20 -14 -14 -5 12 4 9 9 14 11 11
3 -2 0 -13 -6 -23z m-3174 -95 c-2 -13 -4 -3 -4 22 0 25 2 35 4 23 2 -13 2
-33 0 -45z m-2605 -20 c11 -10 25 -18 30 -18 4 0 8 -10 8 -21 0 -18 -2 -19
-15 -9 -9 7 -18 10 -22 7 -3 -3 -19 1 -35 9 -16 9 -36 13 -44 10 -8 -3 -26 -1
-41 5 -22 8 -24 12 -13 19 8 6 30 10 49 10 24 0 32 4 28 14 -3 7 0 19 6 25 9
9 13 6 19 -10 5 -12 18 -30 30 -41z m2621 -77 c4 -32 3 -51 -2 -45 -8 8 -15
68 -12 98 2 21 9 -2 14 -53z m-287 3 c18 -14 18 -14 -6 -3 -31 14 -36 19 -24
19 6 0 19 -7 30 -16z m3368 -38 c-3 -15 -8 -25 -11 -23 -2 3 -1 17 3 31 3 15
8 25 11 23 2 -3 1 -17 -3 -31z m-3310 -5 c-2 -3 -12 3 -22 13 -16 17 -16 18 5
5 12 -7 20 -15 17 -18z m5433 -48 c-2 -16 -4 -5 -4 22 0 28 2 40 4 28 2 -13 2
-35 0 -50z m-7933 12 c11 -8 15 -15 9 -15 -19 0 -43 12 -43 21 0 13 12 11 34
-6z m5791 -35 c-9 -41 -17 -33 -9 9 4 17 9 30 11 27 3 -2 2 -19 -2 -36z m488
15 c-3 -9 -8 -14 -10 -11 -3 3 -2 9 2 15 9 16 15 13 8 -4z m1914 -17 c-3 -8
-6 -5 -6 6 -1 11 2 17 5 13 3 -3 4 -12 1 -19z m-250 -65 c-3 -10 -5 -4 -5 12
0 17 2 24 5 18 2 -7 2 -21 0 -30z m-1737 3 c0 -2 -7 -7 -16 -10 -8 -3 -12 -2
-9 4 6 10 25 14 25 6z m1718 -66 l0 -25 -8 25 c-4 14 -8 36 -8 50 l0 25 8 -25
c4 -14 8 -36 8 -50z m-7527 43 c66 -18 75 -28 80 -87 l4 -38 -53 -2 c-51 -1
-52 0 -52 27 0 16 -7 30 -15 34 -19 7 -44 53 -38 71 6 15 2 15 74 -5z m7556
-35 c-3 -8 -6 -5 -6 6 -1 11 2 17 5 13 3 -3 4 -12 1 -19z m-1857 2 c-8 -5 -19
-10 -25 -10 -5 0 -3 5 5 10 8 5 20 10 25 10 6 0 3 -5 -5 -10z m-333 -77 c-3
-10 -5 -2 -5 17 0 19 2 27 5 18 2 -10 2 -26 0 -35z m233 37 c-8 -5 -19 -10
-25 -10 -5 0 -3 5 5 10 8 5 20 10 25 10 6 0 3 -5 -5 -10z m2197 -22 c-3 -7 -5
-2 -5 12 0 14 2 19 5 13 2 -7 2 -19 0 -25z m-2257 -3 c-14 -8 -29 -14 -35 -14
-5 0 1 6 15 14 14 8 30 14 35 14 6 0 -1 -6 -15 -14z m-4379 -5 c36 -10 71 -41
82 -73 5 -12 -5 -29 -29 -55 -31 -31 -34 -33 -20 -9 16 26 16 30 1 54 -9 13
-19 22 -22 19 -3 -2 -30 -53 -62 -113 -43 -83 -61 -109 -78 -111 -13 -2 -23 0
-23 4 0 4 25 54 55 111 62 117 72 163 29 135 -6 -4 -39 -62 -72 -129 -34 -67
-66 -124 -71 -127 -18 -11 -21 12 -7 46 8 18 24 78 37 133 13 55 27 106 32
113 11 15 97 16 148 2z m6393 -16 c3 -8 2 -12 -4 -9 -6 3 -10 10 -10 16 0 14
7 11 14 -7z m-2190 -39 c3 -8 1 -15 -4 -15 -6 0 -10 7 -10 15 0 8 2 15 4 15 2
0 6 -7 10 -15z m2310 -11 c3 -8 2 -12 -4 -9 -6 3 -10 10 -10 16 0 14 7 11 14
-7z m-4811 -1 c-7 -2 -19 -2 -25 0 -7 3 -2 5 12 5 14 0 19 -2 13 -5z m-126 -9
c-3 -3 -12 -4 -19 -1 -8 3 -5 6 6 6 11 1 17 -2 13 -5z m-104 -11 c-7 -2 -19
-2 -25 0 -7 3 -2 5 12 5 14 0 19 -2 13 -5z m266 3 c-2 -2 -51 -6 -109 -8 -59
-3 -83 -2 -55 2 56 8 171 12 164 6z m4760 -33 c2 -2 0 -3 -6 -3 -6 0 -21 9
-34 21 l-24 20 30 -17 c17 -10 32 -19 34 -21z m-2001 15 c-18 -6 -28 -17 -28
-29 0 -27 26 -34 55 -15 30 20 40 16 49 -20 11 -41 -6 -49 -58 -29 -43 17 -49
17 -87 2 -46 -18 -53 -12 -47 45 2 28 9 35 38 45 19 7 51 12 70 12 l35 -1 -27
-10z m-3000 -5 c-10 -2 -28 -2 -40 0 -13 2 -5 4 17 4 22 1 32 -1 23 -4z m1010
0 c-26 -2 -71 -2 -100 0 -29 2 -8 3 47 3 55 0 79 -1 53 -3z m-1115 -10 c-7 -2
-19 -2 -25 0 -7 3 -2 5 12 5 14 0 19 -2 13 -5z m690 0 c-18 -2 -48 -2 -65 0
-18 2 -4 4 32 4 36 0 50 -2 33 -4z m855 0 c-21 -2 -57 -2 -80 0 -24 2 -7 4 37
4 44 0 63 -2 43 -4z m3647 -11 c-3 -3 -11 0 -18 7 -9 10 -8 11 6 5 10 -3 15
-9 12 -12z m-4712 1 c-13 -2 -33 -2 -45 0 -13 2 -3 4 22 4 25 0 35 -2 23 -4z
m1254 0 c-20 -2 -52 -2 -70 0 -17 2 0 4 38 4 39 0 53 -2 32 -4z m1780 -60 c-2
-16 -4 -5 -4 22 0 28 2 40 4 28 2 -13 2 -35 0 -50z m39 -3 l-14 -33 -5 29 c-3
16 -5 40 -5 53 -1 24 -1 24 19 5 18 -19 18 -23 5 -54z m1591 64 c-3 -3 -12 -4
-19 -1 -8 3 -5 6 6 6 11 1 17 -2 13 -5z m-4819 -11 c-10 -2 -26 -2 -35 0 -10
3 -2 5 17 5 19 0 27 -2 18 -5z m1565 0 c-18 -2 -48 -2 -65 0 -18 2 -4 4 32 4
36 0 50 -2 33 -4z m-1695 -10 c-10 -2 -26 -2 -35 0 -10 3 -2 5 17 5 19 0 27
-2 18 -5z m1815 0 c-13 -2 -33 -2 -45 0 -13 2 -3 4 22 4 25 0 35 -2 23 -4z
m3297 3 c0 -2 -8 -10 -17 -17 -16 -13 -17 -12 -4 4 13 16 21 21 21 13z m-5232
-13 c-10 -2 -26 -2 -35 0 -10 3 -2 5 17 5 19 0 27 -2 18 -5z m2045 0 c-7 -2
-21 -2 -30 0 -10 3 -4 5 12 5 17 0 24 -2 18 -5z m-2163 -10 c-8 -3 -24 -13
-35 -22 -20 -16 -20 -16 -1 7 11 12 26 22 35 21 14 0 14 -1 1 -6z m2263 0 c-7
-2 -21 -2 -30 0 -10 3 -4 5 12 5 17 0 24 -2 18 -5z m3147 2 c0 -2 -10 -9 -22
-15 -22 -11 -22 -10 -4 4 21 17 26 19 26 11z m-3067 -12 c-7 -2 -19 -2 -25 0
-7 3 -2 5 12 5 14 0 19 -2 13 -5z m-2506 -9 c-3 -3 -12 -4 -19 -1 -8 3 -5 6 6
6 11 1 17 -2 13 -5z m2596 -1 c-7 -2 -19 -2 -25 0 -7 3 -2 5 12 5 14 0 19 -2
13 -5z m-2656 -9 c-3 -3 -12 -4 -19 -1 -8 3 -5 6 6 6 11 1 17 -2 13 -5z m2730
0 c-3 -3 -12 -4 -19 -1 -8 3 -5 6 6 6 11 1 17 -2 13 -5z m2688 -4 c3 -6 -1 -7
-9 -4 -18 7 -21 14 -7 14 6 0 13 -4 16 -10z m93 3 c-16 -2 -40 -2 -55 0 -16 2
-3 4 27 4 30 0 43 -2 28 -4z m-5581 -9 c-3 -3 -12 -4 -19 -1 -8 3 -5 6 6 6 11
1 17 -2 13 -5z m2870 0 c-3 -3 -12 -4 -19 -1 -8 3 -5 6 6 6 11 1 17 -2 13 -5z
m412 -17 c0 -8 -2 -8 -5 -1 -3 6 -17 10 -32 8 -27 -4 -27 -4 -2 5 28 9 40 5
39 -12z m-3352 7 c-3 -3 -12 -4 -19 -1 -8 3 -5 6 6 6 11 1 17 -2 13 -5z m3010
0 c-3 -3 -12 -4 -19 -1 -8 3 -5 6 6 6 11 1 17 -2 13 -5z m-3070 -10 c-3 -3
-12 -4 -19 -1 -8 3 -5 6 6 6 11 1 17 -2 13 -5z m3130 0 c-3 -3 -12 -4 -19 -1
-8 3 -5 6 6 6 11 1 17 -2 13 -5z m-3200 -10 c-3 -3 -12 -4 -19 -1 -8 3 -5 6 6
6 11 1 17 -2 13 -5z m-54 -11 c-7 -2 -19 -2 -25 0 -7 3 -2 5 12 5 14 0 19 -2
13 -5z m3374 1 c-3 -3 -12 -4 -19 -1 -8 3 -5 6 6 6 11 1 17 -2 13 -5z m-3650
-10 c-3 -3 -12 -4 -19 -1 -8 3 -5 6 6 6 11 1 17 -2 13 -5z m3398 -14 c10 -11
16 -20 13 -20 -3 0 -13 9 -23 20 -10 11 -16 20 -13 20 3 0 13 -9 23 -20z
m2566 10 c15 0 10 -54 -7 -78 -18 -26 -49 -31 -40 -6 3 9 6 34 6 56 0 32 3 39
16 34 9 -3 20 -6 25 -6z m708 -10 c24 -11 41 -23 37 -27 -3 -4 5 -18 19 -33
17 -18 23 -32 19 -48 -5 -18 -27 -28 -133 -61 -193 -60 -198 -61 -362 -60
-133 1 -163 -2 -222 -20 -76 -25 -110 -24 -115 1 -9 45 288 203 473 253 79 22
231 19 284 -5z m-6512 4 c-3 -3 -12 -4 -19 -1 -8 3 -5 6 6 6 11 1 17 -2 13 -5z
m3136 -1 c-13 -2 -33 -2 -45 0 -13 2 -3 4 22 4 25 0 35 -2 23 -4z m-3186 -9
c-3 -3 -12 -4 -19 -1 -8 3 -5 6 6 6 11 1 17 -2 13 -5z m1797 -3 c4 -5 -3 -7
-14 -4 -23 6 -26 13 -6 13 8 0 17 -4 20 -9z m1159 2 c-18 -2 -48 -2 -65 0 -18
2 -4 4 32 4 36 0 50 -2 33 -4z m768 -14 l24 -20 -30 17 c-39 24 -40 24 -28 24
6 0 21 -9 34 -21z m-2185 -5 c18 -14 18 -14 -6 -3 -31 14 -36 19 -24 19 6 0
19 -7 30 -16z m1227 9 c-7 -2 -21 -2 -30 0 -10 3 -4 5 12 5 17 0 24 -2 18 -5z
m1085 -18 c-6 -14 -16 -25 -21 -25 -5 0 -7 -15 -4 -36 6 -33 5 -35 -8 -18 -21
27 -18 54 7 81 28 30 40 29 26 -2z m-1165 8 c-7 -2 -19 -2 -25 0 -7 3 -2 5 12
5 14 0 19 -2 13 -5z m750 -10 c-7 -2 -21 -2 -30 0 -10 3 -4 5 12 5 17 0 24 -2
18 -5z m99 -38 c28 -25 64 -53 79 -62 16 -10 29 -21 29 -26 0 -10 -114 76
-147 110 -37 39 -14 26 39 -22z m-514 28 c-10 -2 -28 -2 -40 0 -13 2 -5 4 17
4 22 1 32 -1 23 -4z m-5227 -111 c-5 -2 -8 -9 -6 -15 2 -7 6 -25 9 -42 l5 -30
-14 30 c-18 38 -19 119 -2 148 11 20 12 17 15 -33 2 -30 -1 -56 -7 -58z m4846
102 c-3 -3 -12 -4 -19 -1 -8 3 -5 6 6 6 11 1 17 -2 13 -5z m-1013 -33 c-2 -3
-12 3 -22 13 -16 17 -16 18 5 5 12 -7 20 -15 17 -18z m3883 -7 c17 -3 41 -16
54 -27 14 -12 20 -19 15 -14 -20 15 -28 6 -11 -13 9 -10 21 -18 26 -17 5 1 18
-12 29 -30 16 -23 18 -33 9 -39 -7 -4 -9 -3 -6 3 3 5 -3 22 -14 39 l-20 29 6
-35 c8 -44 -7 -86 -33 -92 -30 -8 -79 18 -96 51 -23 44 -20 81 11 113 l27 28
-41 0 c-28 0 -43 -5 -47 -16 -4 -10 -12 -14 -23 -9 -13 4 -29 -6 -58 -37 -37
-41 -36 -38 5 16 14 18 13 19 -15 13 -118 -22 -205 -54 -266 -99 -15 -11 -32
-17 -37 -14 -7 4 -12 -10 -15 -36 l-4 -43 -1 40 c-3 84 53 132 198 170 94 24
238 33 307 19z m-2857 -39 c0 -5 -5 -3 -10 5 -5 8 -10 20 -10 25 0 6 5 3 10
-5 5 -8 10 -19 10 -25z m1401 -2 c13 -16 12 -17 -3 -4 -10 7 -18 15 -18 17 0
8 8 3 21 -13z m134 -4 c16 -16 -20 -10 -41 7 -18 14 -18 15 6 8 14 -3 29 -10
35 -15z m-4665 7 c0 -2 -7 -7 -16 -10 -8 -3 -12 -2 -9 4 6 10 25 14 25 6z
m5520 1 c0 -2 -12 -14 -27 -28 l-28 -24 24 28 c23 25 31 32 31 24z m345 -66
c-21 -43 -29 -39 -8 4 9 19 18 33 21 31 2 -2 -4 -18 -13 -35z m-1701 0 c-2 -3
-12 3 -22 13 -16 17 -16 18 5 5 12 -7 20 -15 17 -18z m43 -7 c-3 -3 -12 -4
-19 -1 -8 3 -5 6 6 6 11 1 17 -2 13 -5z m-2867 -24 c-6 -11 -13 -20 -16 -20
-2 0 0 9 6 20 6 11 13 20 16 20 2 0 0 -9 -6 -20z m4486 -46 c-6 -19 -12 -28
-14 -20 -3 13 14 56 22 56 2 0 -2 -16 -8 -36z m-4542 -14 c10 -13 9 -13 -6 -1
-10 7 -18 21 -17 30 0 13 1 14 6 1 3 -8 11 -22 17 -30z m3076 5 c13 -14 21
-25 18 -25 -2 0 -15 11 -28 25 -13 14 -21 25 -18 25 2 0 15 -11 28 -25z
m-1160 -20 c0 -5 -5 -3 -10 5 -5 8 -10 20 -10 25 0 6 5 3 10 -5 5 -8 10 -19
10 -25z m-793 -27 c-2 -13 -4 -5 -4 17 -1 22 1 32 4 23 2 -10 2 -28 0 -40z
m2588 31 c-4 -5 -14 -8 -23 -8 -15 1 -15 2 1 6 9 2 14 9 11 15 -4 7 -2 8 5 4
6 -4 9 -12 6 -17z m-5851 -41 c-52 -54 -84 -96 -84 -110 0 -20 26 -3 102 68
45 41 84 71 86 65 2 -6 -10 -34 -26 -63 -17 -29 -40 -77 -51 -106 -33 -83 -3
-60 49 39 24 46 46 77 48 68 1 -9 -12 -61 -29 -115 -18 -54 -33 -108 -34 -119
-1 -14 -10 -21 -28 -23 -22 -3 -38 8 -84 59 -32 34 -69 77 -82 95 l-23 33 30
39 c55 69 119 122 149 122 27 0 26 -1 -23 -52z m1124 35 c-26 -2 -71 -2 -100
0 -29 2 -8 3 47 3 55 0 79 -1 53 -3z m369 1 c-3 -3 -12 -4 -19 -1 -8 3 -5 6 6
6 11 1 17 -2 13 -5z m684 -11 c13 -16 12 -17 -3 -4 -17 13 -22 21 -14 21 2 0
10 -8 17 -17z m3728 -16 c5 1 19 -10 32 -25 13 -15 18 -22 10 -15 -7 6 -21 9
-30 6 -14 -4 -14 -3 -1 6 8 6 12 11 8 11 -19 0 -24 2 -40 17 -10 9 -18 21 -18
27 0 6 8 2 16 -9 8 -11 19 -19 23 -18z m-5036 16 c-7 -2 -21 -2 -30 0 -10 3
-4 5 12 5 17 0 24 -2 18 -5z m3947 3 c0 -3 -4 -8 -10 -11 -5 -3 -10 -1 -10 4
0 6 5 11 10 11 6 0 10 -2 10 -4z m990 1 c0 -2 -10 -12 -22 -23 l-23 -19 19 23
c18 21 26 27 26 19z m-5023 -13 c-3 -3 -12 -4 -19 -1 -8 3 -5 6 6 6 11 1 17
-2 13 -5z m4943 2 c0 -2 -8 -10 -17 -17 -16 -13 -17 -12 -4 4 13 16 21 21 21
13z m1030 -59 c13 -10 20 -17 14 -17 -7 0 -29 17 -51 38 -21 20 -28 28 -14 16
14 -11 37 -28 51 -37z m-6010 50 c0 -2 -10 -12 -22 -23 l-23 -19 19 23 c18 21
26 27 26 19z m4535 -17 c10 -11 16 -20 13 -20 -3 0 -13 9 -23 20 -10 11 -16
20 -13 20 3 0 13 -9 23 -20z m-4825 7 c0 -2 -10 -12 -22 -23 l-23 -19 19 23
c18 21 26 27 26 19z m1048 -4 c-15 -2 -42 -2 -60 0 -18 2 -6 4 27 4 33 0 48
-2 33 -4z m3279 -15 c-3 -8 -6 -5 -6 6 -1 11 2 17 5 13 3 -3 4 -12 1 -19z
m1085 5 c10 -9 18 -22 18 -30 0 -7 4 -13 8 -13 4 0 14 -15 21 -32 12 -28 14
-30 18 -13 8 35 21 39 34 12 9 -20 9 -36 -1 -72 -10 -37 -10 -48 1 -61 32 -39
355 -305 376 -311 31 -7 40 3 25 27 -7 11 -12 25 -12 32 0 15 150 288 217 396
l46 74 26 -33 c70 -88 75 -121 7 -52 -33 35 -36 36 -36 14 0 -12 13 -36 30
-52 l30 -30 -49 -59 c-74 -88 -138 -181 -191 -276 -69 -124 -132 -160 -208
-120 -40 21 -148 137 -242 259 -46 59 -86 107 -91 107 -17 0 -19 -21 -4 -50
l16 -31 -23 15 c-13 9 -35 30 -48 48 -29 39 -29 104 1 184 12 30 19 57 17 60
-12 11 -42 -41 -58 -98 -16 -58 -18 -61 -25 -35 -13 50 30 157 63 157 8 0 24
-7 34 -17z m-5089 -4 c-18 -5 -33 -14 -33 -20 0 -6 4 -7 10 -4 6 3 7 -1 3 -10
-5 -13 -7 -14 -14 -3 -8 13 -11 9 -13 -21 -1 -8 -9 -15 -18 -17 -14 -2 -12 6
13 42 23 34 36 44 57 43 26 -1 26 -1 -5 -10z m590 4 c-23 -2 -64 -2 -90 0 -26
2 -7 3 42 3 50 0 71 -1 48 -3z m104 -9 c-3 -3 -12 -4 -19 -1 -8 3 -5 6 6 6 11
1 17 -2 13 -5z m2886 -11 c-7 -2 -19 -2 -25 0 -7 3 -2 5 12 5 14 0 19 -2 13
-5z m1327 4 c0 -1 -24 -25 -52 -52 l-53 -50 50 53 c46 48 55 57 55 49z m-4980
-11 c0 -2 -8 -10 -17 -17 -16 -13 -17 -12 -4 4 13 16 21 21 21 13z m1589 -40
c-1 -20 -2 -20 -6 -1 -3 11 -10 27 -17 35 -10 13 -9 13 7 1 9 -7 16 -23 16
-35z m1959 37 c-10 -2 -28 -2 -40 0 -13 2 -5 4 17 4 22 1 32 -1 23 -4z m109
-35 c-3 -7 -5 -2 -5 12 0 14 2 19 5 13 2 -7 2 -19 0 -25z m463 22 c0 -5 -2
-10 -4 -10 -3 0 -8 5 -11 10 -3 6 -1 10 4 10 6 0 11 -4 11 -10z m-3310 -3 c0
-2 -10 -12 -22 -23 l-23 -19 19 23 c18 21 26 27 26 19z m3317 -39 c-3 -8 -6
-5 -6 6 -1 11 2 17 5 13 3 -3 4 -12 1 -19z m90 6 c-3 -3 -12 -4 -19 -1 -8 3
-5 6 6 6 11 1 17 -2 13 -5z m1109 -70 c6 -45 -1 -69 -18 -58 -6 4 -7 24 -3 50
3 25 1 53 -5 66 -10 22 -10 22 4 4 8 -10 18 -38 22 -62z m-2929 60 c-3 -3 -12
-4 -19 -1 -8 3 -5 6 6 6 11 1 17 -2 13 -5z m1880 0 c-3 -3 -12 -4 -19 -1 -8 3
-5 6 6 6 11 1 17 -2 13 -5z m750 -46 c-2 -13 -4 -5 -4 17 -1 22 1 32 4 23 2
-10 2 -28 0 -40z m-867 39 c0 -2 -10 -12 -22 -23 l-23 -19 19 23 c18 21 26 27
26 19z m183 -4 c-7 -2 -19 -2 -25 0 -7 3 -2 5 12 5 14 0 19 -2 13 -5z m-3515
-10 c-16 -2 -40 -2 -55 0 -16 2 -3 4 27 4 30 0 43 -2 28 -4z m749 -15 c-3 -8
-6 -5 -6 6 -1 11 2 17 5 13 3 -3 4 -12 1 -19z m750 16 c-3 -3 -12 -4 -19 -1
-8 3 -5 6 6 6 11 1 17 -2 13 -5z m2080 0 c-3 -3 -12 -4 -19 -1 -8 3 -5 6 6 6
11 1 17 -2 13 -5z m-314 -11 c-7 -2 -21 -2 -30 0 -10 3 -4 5 12 5 17 0 24 -2
18 -5z m384 1 c-3 -3 -12 -4 -19 -1 -8 3 -5 6 6 6 11 1 17 -2 13 -5z m386 -1
c-7 -2 -19 -2 -25 0 -7 3 -2 5 12 5 14 0 19 -2 13 -5z m-1085 -10 c-21 -2 -55
-2 -75 0 -21 2 -4 4 37 4 41 0 58 -2 38 -4z m795 0 c-7 -2 -21 -2 -30 0 -10 3
-4 5 12 5 17 0 24 -2 18 -5z m160 -10 c-13 -2 -33 -2 -45 0 -13 2 -3 4 22 4
25 0 35 -2 23 -4z m-613 -6 c0 -2 -10 -12 -22 -23 l-23 -19 19 23 c18 21 26
27 26 19z m691 -24 c13 -16 12 -17 -3 -4 -10 7 -18 15 -18 17 0 8 8 3 21 -13z
m-3976 -3 c-27 -12 -43 -12 -25 0 8 5 22 9 30 9 10 0 8 -3 -5 -9z m762 -12
c-3 -8 -6 -5 -6 6 -1 11 2 17 5 13 3 -3 4 -12 1 -19z m70 16 c-3 -3 -12 -4
-19 -1 -8 3 -5 6 6 6 11 1 17 -2 13 -5z m560 -41 c-3 -10 -5 -2 -5 17 0 19 2
27 5 18 2 -10 2 -26 0 -35z m-522 13 c11 -3 0 -3 -25 0 -25 3 -49 9 -54 14 -9
9 4 6 79 -14z m3023 17 c-10 -2 -26 -2 -35 0 -10 3 -2 5 17 5 19 0 27 -2 18
-5z m-2845 -30 c-7 -2 -21 -2 -30 0 -10 3 -4 5 12 5 17 0 24 -2 18 -5z m314
-15 c-3 -8 -6 -5 -6 6 -1 11 2 17 5 13 3 -3 4 -12 1 -19z m1873 18 c0 -2 -8
-10 -17 -17 -16 -13 -17 -12 -4 4 13 16 21 21 21 13z m750 -12 c0 -2 -11 -3
-24 -2 -14 1 -23 5 -20 9 4 7 44 0 44 -7z m-2925 -9 l80 -14 -67 5 c-37 3 -80
9 -95 14 -42 12 -8 10 82 -5z m-202 -2 c-7 -2 -19 -2 -25 0 -7 3 -2 5 12 5 14
0 19 -2 13 -5z m-1786 -9 c-3 -3 -12 -4 -19 -1 -8 3 -5 6 6 6 11 1 17 -2 13
-5z m2186 -1 c-7 -2 -21 -2 -30 0 -10 3 -4 5 12 5 17 0 24 -2 18 -5z m-2100
-10 c-7 -2 -19 -2 -25 0 -7 3 -2 5 12 5 14 0 19 -2 13 -5z m1804 1 c-3 -3 -12
-4 -19 -1 -8 3 -5 6 6 6 11 1 17 -2 13 -5z m343 2 c0 -2 -9 -6 -20 -9 -11 -3
-18 -1 -14 4 5 9 34 13 34 5z m40 -5 c0 -6 -5 -13 -12 -17 -6 -4 -8 -3 -4 4 3
5 0 13 -6 15 -8 3 -6 6 5 6 9 1 17 -3 17 -8z m1848 -11 c-7 -10 -14 -17 -17
-15 -4 4 18 35 25 35 2 0 -1 -9 -8 -20z m-2181 4 c-3 -3 -12 -4 -19 -1 -8 3
-5 6 6 6 11 1 17 -2 13 -5z m243 2 c0 -2 -9 -6 -20 -9 -11 -3 -18 -1 -14 4 5
9 34 13 34 5z m-157 -13 c-13 -2 -33 -2 -45 0 -13 2 -3 4 22 4 25 0 35 -2 23
-4z m90 0 c-7 -2 -21 -2 -30 0 -10 3 -4 5 12 5 17 0 24 -2 18 -5z m2707 -33
c-13 -11 -25 -20 -28 -20 -3 0 3 9 13 20 10 11 23 20 28 20 6 0 0 -9 -13 -20z
m-5014 -22 l29 -33 -32 29 c-18 17 -33 31 -33 33 0 8 8 1 36 -29z m4304 12 c0
-5 -5 -10 -11 -10 -5 0 -7 5 -4 10 3 6 8 10 11 10 2 0 4 -4 4 -10z m660 -50
c-11 -16 -26 -33 -32 -36 -7 -4 1 9 16 29 34 44 46 50 16 7z m-610 4 c0 -2 -7
-4 -15 -4 -8 0 -15 4 -15 10 0 5 7 7 15 4 8 -4 15 -8 15 -10z m-4070 -4 c8 -5
11 -10 5 -10 -5 0 -17 5 -25 10 -8 5 -10 10 -5 10 6 0 17 -5 25 -10z m727 4
c-3 -3 -12 -4 -19 -1 -8 3 -5 6 6 6 11 1 17 -2 13 -5z m-649 -21 c-10 -2 -28
-2 -40 0 -13 2 -5 4 17 4 22 1 32 -1 23 -4z m625 0 c-29 -2 -78 -2 -110 0 -32
2 -8 3 52 3 61 0 87 -1 58 -3z m-530 -10 c-7 -2 -21 -2 -30 0 -10 3 -4 5 12 5
17 0 24 -2 18 -5z m90 -10 c-7 -2 -19 -2 -25 0 -7 3 -2 5 12 5 14 0 19 -2 13
-5z m90 -10 c-7 -2 -19 -2 -25 0 -7 3 -2 5 12 5 14 0 19 -2 13 -5z m3894 1
c-3 -3 -12 -4 -19 -1 -8 3 -5 6 6 6 11 1 17 -2 13 -5z m-3789 -11 c-10 -2 -26
-2 -35 0 -10 3 -2 5 17 5 19 0 27 -2 18 -5z m349 1 c-3 -3 -12 -4 -19 -1 -8 3
-5 6 6 6 11 1 17 -2 13 -5z m3480 0 c-3 -3 -12 -4 -19 -1 -8 3 -5 6 6 6 11 1
17 -2 13 -5z m347 -9 c-4 -8 -11 -15 -16 -15 -6 0 -5 6 2 15 7 8 14 15 16 15
2 0 1 -7 -2 -15z m-3961 -2 c-24 -2 -62 -2 -85 0 -24 2 -5 4 42 4 47 0 66 -2
43 -4z m-728 -51 c-3 -3 -11 0 -18 7 -9 10 -8 11 6 5 10 -3 15 -9 12 -12z
m4638 -15 c3 -8 -1 -14 -8 -14 -7 0 -11 6 -8 14 3 7 6 13 8 13 2 0 5 -6 8 -13z
m417 3 c-8 -5 -19 -10 -25 -10 -5 0 -3 5 5 10 8 5 20 10 25 10 6 0 3 -5 -5
-10z m-570 -20 c8 -5 11 -10 5 -10 -5 0 -17 5 -25 10 -8 5 -10 10 -5 10 6 0
17 -5 25 -10z m147 -52 c-3 -8 -6 -5 -6 6 -1 11 2 17 5 13 3 -3 4 -12 1 -19z
m-5734 -65 c-7 -2 -19 -2 -25 0 -7 3 -2 5 12 5 14 0 19 -2 13 -5z m1724 -49
c-3 -3 -12 -4 -19 -1 -8 3 -5 6 6 6 11 1 17 -2 13 -5z m3810 -10 c-3 -3 -12
-4 -19 -1 -8 3 -5 6 6 6 11 1 17 -2 13 -5z m-3720 -10 c-3 -3 -12 -4 -19 -1
-8 3 -5 6 6 6 11 1 17 -2 13 -5z m3670 0 c-3 -3 -12 -4 -19 -1 -8 3 -5 6 6 6
11 1 17 -2 13 -5z m-3620 -10 c-3 -3 -12 -4 -19 -1 -8 3 -5 6 6 6 11 1 17 -2
13 -5z m3520 -10 c-3 -3 -12 -4 -19 -1 -8 3 -5 6 6 6 11 1 17 -2 13 -5z
m-4010 -50 c70 -26 134 -51 141 -56 29 -24 11 -33 -71 -33 -61 0 -97 -6 -140
-23 -32 -12 -62 -20 -67 -17 -4 2 -6 24 -3 47 3 24 0 62 -5 86 -8 33 -7 42 4
42 7 0 71 -21 141 -46z m600 40 c-3 -3 -12 -4 -19 -1 -8 3 -5 6 6 6 11 1 17
-2 13 -5z m3300 -10 c-3 -3 -12 -4 -19 -1 -8 3 -5 6 6 6 11 1 17 -2 13 -5z
m-3520 -10 c-3 -3 -12 -4 -19 -1 -8 3 -5 6 6 6 11 1 17 -2 13 -5z m340 0 c-3
-3 -12 -4 -19 -1 -8 3 -5 6 6 6 11 1 17 -2 13 -5z m3120 0 c-3 -3 -12 -4 -19
-1 -8 3 -5 6 6 6 11 1 17 -2 13 -5z m-3410 -10 c-3 -3 -12 -4 -19 -1 -8 3 -5
6 6 6 11 1 17 -2 13 -5z m350 0 c-3 -3 -12 -4 -19 -1 -8 3 -5 6 6 6 11 1 17
-2 13 -5z m2990 0 c-3 -3 -12 -4 -19 -1 -8 3 -5 6 6 6 11 1 17 -2 13 -5z
m-2920 -10 c-3 -3 -12 -4 -19 -1 -8 3 -5 6 6 6 11 1 17 -2 13 -5z m2850 0 c-3
-3 -12 -4 -19 -1 -8 3 -5 6 6 6 11 1 17 -2 13 -5z m-2774 -11 c-7 -2 -19 -2
-25 0 -7 3 -2 5 12 5 14 0 19 -2 13 -5z m2710 0 c-7 -2 -19 -2 -25 0 -7 3 -2
5 12 5 14 0 19 -2 13 -5z m-3056 -9 c-3 -3 -12 -4 -19 -1 -8 3 -5 6 6 6 11 1
17 -2 13 -5z m426 -1 c-7 -2 -19 -2 -25 0 -7 3 -2 5 12 5 14 0 19 -2 13 -5z
m2550 0 c-7 -2 -19 -2 -25 0 -7 3 -2 5 12 5 14 0 19 -2 13 -5z m404 1 c-3 -3
-12 -4 -19 -1 -8 3 -5 6 6 6 11 1 17 -2 13 -5z m-3320 -10 c-3 -3 -12 -4 -19
-1 -8 3 -5 6 6 6 11 1 17 -2 13 -5z m446 -1 c-7 -2 -19 -2 -25 0 -7 3 -2 5 12
5 14 0 19 -2 13 -5z m2390 0 c-7 -2 -19 -2 -25 0 -7 3 -2 5 12 5 14 0 19 -2
13 -5z m424 1 c-3 -3 -12 -4 -19 -1 -8 3 -5 6 6 6 11 1 17 -2 13 -5z m310 0
c-3 -3 -12 -4 -19 -1 -8 3 -5 6 6 6 11 1 17 -2 13 -5z m-3024 -11 c-7 -2 -21
-2 -30 0 -10 3 -4 5 12 5 17 0 24 -2 18 -5z m2200 0 c-7 -2 -19 -2 -25 0 -7 3
-2 5 12 5 14 0 19 -2 13 -5z m454 1 c-3 -3 -12 -4 -19 -1 -8 3 -5 6 6 6 11 1
17 -2 13 -5z m-3080 -10 c-3 -3 -12 -4 -19 -1 -8 3 -5 6 6 6 11 1 17 -2 13 -5z
m526 -1 c-7 -2 -21 -2 -30 0 -10 3 -4 5 12 5 17 0 24 -2 18 -5z m2010 0 c-7
-2 -21 -2 -30 0 -10 3 -4 5 12 5 17 0 24 -2 18 -5z m484 1 c-3 -3 -12 -4 -19
-1 -8 3 -5 6 6 6 11 1 17 -2 13 -5z m-2954 -11 c-7 -2 -19 -2 -25 0 -7 3 -2 5
12 5 14 0 19 -2 13 -5z m575 0 c-10 -2 -26 -2 -35 0 -10 3 -2 5 17 5 19 0 27
-2 18 -5z m1780 0 c-10 -2 -26 -2 -35 0 -10 3 -2 5 17 5 19 0 27 -2 18 -5z
m529 1 c-3 -3 -12 -4 -19 -1 -8 3 -5 6 6 6 11 1 17 -2 13 -5z m370 0 c-3 -3
-12 -4 -19 -1 -8 3 -5 6 6 6 11 1 17 -2 13 -5z m547 -116 c9 -68 33 -201 52
-297 20 -95 33 -175 31 -177 -3 -3 -67 121 -144 274 l-139 279 86 20 c47 11
87 21 90 22 3 0 14 -54 24 -121z m-3731 105 c-7 -2 -19 -2 -25 0 -7 3 -2 5 12
5 14 0 19 -2 13 -5z m645 0 c-10 -2 -28 -2 -40 0 -13 2 -5 4 17 4 22 1 32 -1
23 -4z m1510 0 c-10 -2 -28 -2 -40 0 -13 2 -5 4 17 4 22 1 32 -1 23 -4z m589
1 c-3 -3 -12 -4 -19 -1 -8 3 -5 6 6 6 11 1 17 -2 13 -5z m390 0 c-3 -3 -12 -4
-19 -1 -8 3 -5 6 6 6 11 1 17 -2 13 -5z m-3054 -11 c-7 -2 -19 -2 -25 0 -7 3
-2 5 12 5 14 0 19 -2 13 -5z m740 0 c-13 -2 -35 -2 -50 0 -16 2 -5 4 22 4 28
0 40 -2 28 -4z m1180 0 c-13 -2 -35 -2 -50 0 -16 2 -5 4 22 4 28 0 40 -2 28
-4z m670 0 c-7 -2 -19 -2 -25 0 -7 3 -2 5 12 5 14 0 19 -2 13 -5z m404 1 c-3
-3 -12 -4 -19 -1 -8 3 -5 6 6 6 11 1 17 -2 13 -5z m-2914 -11 c-7 -2 -21 -2
-30 0 -10 3 -4 5 12 5 17 0 24 -2 18 -5z m894 0 c-20 -2 -52 -2 -70 0 -17 2 0
4 38 4 39 0 53 -2 32 -4z m711 0 c-21 -2 -57 -2 -80 0 -24 2 -7 4 37 4 44 0
63 -2 43 -4z m825 0 c-7 -2 -19 -2 -25 0 -7 3 -2 5 12 5 14 0 19 -2 13 -5z
m434 1 c-3 -3 -12 -4 -19 -1 -8 3 -5 6 6 6 11 1 17 -2 13 -5z m-2774 -11 c-7
-2 -19 -2 -25 0 -7 3 -2 5 12 5 14 0 19 -2 13 -5z m2250 0 c-7 -2 -21 -2 -30
0 -10 3 -4 5 12 5 17 0 24 -2 18 -5z m464 1 c-3 -3 -12 -4 -19 -1 -8 3 -5 6 6
6 11 1 17 -2 13 -5z m-3220 -10 c-3 -3 -12 -4 -19 -1 -8 3 -5 6 6 6 11 1 17
-2 13 -5z m606 -1 c-7 -2 -21 -2 -30 0 -10 3 -4 5 12 5 17 0 24 -2 18 -5z
m2050 0 c-7 -2 -21 -2 -30 0 -10 3 -4 5 12 5 17 0 24 -2 18 -5z m504 1 c-3 -3
-12 -4 -19 -1 -8 3 -5 6 6 6 11 1 17 -2 13 -5z m-3100 -10 c-3 -3 -12 -4 -19
-1 -8 3 -5 6 6 6 11 1 17 -2 13 -5z m661 -1 c-10 -2 -26 -2 -35 0 -10 3 -2 5
17 5 19 0 27 -2 18 -5z m1825 0 c-7 -2 -21 -2 -30 0 -10 3 -4 5 12 5 17 0 24
-2 18 -5z m554 1 c-3 -3 -12 -4 -19 -1 -8 3 -5 6 6 6 11 1 17 -2 13 -5z
m-2980 -10 c-3 -3 -12 -4 -19 -1 -8 3 -5 6 6 6 11 1 17 -2 13 -5z m731 -1
c-10 -2 -26 -2 -35 0 -10 3 -2 5 17 5 19 0 27 -2 18 -5z m1570 0 c-10 -2 -28
-2 -40 0 -13 2 -5 4 17 4 22 1 32 -1 23 -4z m615 0 c-7 -2 -19 -2 -25 0 -7 3
-2 5 12 5 14 0 19 -2 13 -5z m-2850 -10 c-7 -2 -19 -2 -25 0 -7 3 -2 5 12 5
14 0 19 -2 13 -5z m830 0 c-13 -2 -35 -2 -50 0 -16 2 -5 4 22 4 28 0 40 -2 28
-4z m1250 0 c-13 -2 -35 -2 -50 0 -16 2 -5 4 22 4 28 0 40 -2 28 -4z m700 0
c-7 -2 -21 -2 -30 0 -10 3 -4 5 12 5 17 0 24 -2 18 -5z m-1705 -10 c-21 -2
-55 -2 -75 0 -21 2 -4 4 37 4 41 0 58 -2 38 -4z m790 0 c-21 -2 -57 -2 -80 0
-24 2 -7 4 37 4 44 0 63 -2 43 -4z m835 0 c-7 -2 -19 -2 -25 0 -7 3 -2 5 12 5
14 0 19 -2 13 -5z m-3398 -85 c-4 -46 -17 -130 -30 -188 -47 -213 -125 -726
-125 -822 0 -42 -8 -68 -21 -68 -6 0 -5 8 1 19 14 27 13 91 -7 271 -14 133
-15 178 -5 320 7 91 21 223 32 294 28 179 28 176 -17 173 -27 -1 -38 2 -38 12
0 10 31 22 95 38 52 13 96 26 99 28 17 18 22 -5 16 -77z m862 76 c-3 -3 -12
-4 -19 -1 -8 3 -5 6 6 6 11 1 17 -2 13 -5z m2456 -1 c-7 -2 -19 -2 -25 0 -7 3
-2 5 12 5 14 0 19 -2 13 -5z m-2380 -10 c-7 -2 -19 -2 -25 0 -7 3 -2 5 12 5
14 0 19 -2 13 -5z m2290 0 c-7 -2 -19 -2 -25 0 -7 3 -2 5 12 5 14 0 19 -2 13
-5z m-2200 -10 c-7 -2 -21 -2 -30 0 -10 3 -4 5 12 5 17 0 24 -2 18 -5z m2110
0 c-7 -2 -21 -2 -30 0 -10 3 -4 5 12 5 17 0 24 -2 18 -5z m-1985 -10 c-10 -2
-26 -2 -35 0 -10 3 -2 5 17 5 19 0 27 -2 18 -5z m1880 0 c-10 -2 -26 -2 -35 0
-10 3 -2 5 17 5 19 0 27 -2 18 -5z m-1730 -10 c-10 -2 -28 -2 -40 0 -13 2 -5
4 17 4 22 1 32 -1 23 -4z m1595 0 c-13 -2 -33 -2 -45 0 -13 2 -3 4 22 4 25 0
35 -2 23 -4z m-1935 -10 c-10 -2 -28 -2 -40 0 -13 2 -5 4 17 4 22 1 32 -1 23
-4z m485 0 c-13 -2 -33 -2 -45 0 -13 2 -3 4 22 4 25 0 35 -2 23 -4z m1285 0
c-15 -2 -42 -2 -60 0 -18 2 -6 4 27 4 33 0 48 -2 33 -4z m-1040 -10 c-21 -2
-57 -2 -80 0 -24 2 -7 4 37 4 44 0 63 -2 43 -4z m795 0 c-24 -2 -62 -2 -85 0
-24 2 -5 4 42 4 47 0 66 -2 43 -4z m2167 -48 c5 -6 17 -110 25 -231 9 -120 20
-252 25 -292 12 -91 12 -92 0 -92 -5 0 -10 19 -10 43 0 23 -13 112 -29 197
-16 85 -36 200 -45 255 -9 55 -18 110 -22 121 -5 19 -2 21 20 17 14 -3 30 -11
36 -18z m-4504 -200 c8 -27 14 -70 13 -95 l0 -45 -23 75 c-13 41 -26 102 -29
135 l-7 60 16 -40 c9 -22 22 -62 30 -90z m3931 83 c-3 -8 -6 -5 -6 6 -1 11 2
17 5 13 3 -3 4 -12 1 -19z m-3870 -70 c-2 -13 -4 -5 -4 17 -1 22 1 32 4 23 2
-10 2 -28 0 -40z m50 -70 c-2 -13 -4 -3 -4 22 0 25 2 35 4 23 2 -13 2 -33 0
-45z m3760 40 c-3 -8 -6 -5 -6 6 -1 11 2 17 5 13 3 -3 4 -12 1 -19z m40 0 c-3
-8 -6 -5 -6 6 -1 11 2 17 5 13 3 -3 4 -12 1 -19z m-10 -50 c-3 -8 -6 -5 -6 6
-1 11 2 17 5 13 3 -3 4 -12 1 -19z m-40 -10 c-3 -8 -6 -5 -6 6 -1 11 2 17 5
13 3 -3 4 -12 1 -19z m921 -25 c4 -24 -15 -37 -68 -47 -27 -5 -39 -14 -50 -39
-8 -17 -21 -33 -27 -33 -7 -1 -16 -3 -20 -4 -5 -1 -11 -2 -15 -1 -5 0 -8 -8
-8 -20 0 -21 0 -21 20 2 10 13 19 19 20 13 0 -6 -11 -21 -24 -33 l-24 -23 -4
28 c-2 16 5 46 15 67 21 44 17 67 -13 67 -11 0 -20 7 -20 15 0 9 10 15 26 15
14 0 34 5 44 10 13 7 21 7 25 0 9 -15 45 -12 51 4 9 22 68 5 72 -21z m-4711
-35 c-2 -13 -4 -3 -4 22 0 25 2 35 4 23 2 -13 2 -33 0 -45z m5058 12 c11 -5
-35 -7 -102 -7 -118 2 -132 5 -116 21 9 9 189 -3 218 -14z m-1980 -20 c4 -6
-7 -10 -27 -10 -35 0 -111 -31 -122 -49 -4 -6 -12 -11 -18 -11 -21 0 14 29 65
55 53 26 92 32 102 15z m1160 -10 c3 -6 -4 -10 -17 -10 -18 0 -20 2 -8 10 19
12 18 12 25 0z m-428 -22 c-3 -8 -6 -5 -6 6 -1 11 2 17 5 13 3 -3 4 -12 1 -19z
m-3760 -50 c-2 -13 -4 -3 -4 22 0 25 2 35 4 23 2 -13 2 -33 0 -45z m3720 30
c-3 -8 -6 -5 -6 6 -1 11 2 17 5 13 3 -3 4 -12 1 -19z m1366 -11 c16 -11 16
-14 1 -35 -22 -32 -58 -26 -62 11 -4 34 14 61 31 46 7 -5 20 -15 30 -22z
m-2009 -3 c24 -9 19 -26 -5 -19 -31 10 -82 -2 -123 -30 -37 -25 -49 -20 -18 8
39 35 109 55 146 41z m1061 -4 c3 -6 -1 -13 -10 -16 -19 -8 -30 0 -20 15 8 14
22 14 30 1z m-1515 -34 c0 -19 -4 -23 -19 -19 -13 3 -27 -6 -46 -31 -33 -44
-61 -51 -40 -10 10 20 88 84 103 84 1 0 2 -11 2 -24z m2093 -19 l24 5 -12 -69
c-7 -37 -16 -90 -20 -116 -5 -38 -10 -47 -23 -45 -15 3 -17 19 -17 129 0 102
2 123 12 109 8 -11 21 -16 36 -13z m-4756 -39 c-2 -13 -4 -3 -4 22 0 25 2 35
4 23 2 -13 2 -33 0 -45z m3780 20 c-3 -8 -6 -5 -6 6 -1 11 2 17 5 13 3 -3 4
-12 1 -19z m-4915 -53 c3 -27 6 -90 6 -140 l0 -90 -14 120 c-7 66 -13 126 -13
133 -1 6 -8 12 -16 12 -8 0 -15 5 -15 11 0 6 10 9 23 7 18 -2 23 -11 29 -53z
m5975 33 c-3 -8 -6 -5 -6 6 -1 11 2 17 5 13 3 -3 4 -12 1 -19z m-1661 -13 c17
-13 13 -14 -46 -9 -56 5 -72 2 -112 -19 -61 -31 -61 -25 -1 13 53 34 125 41
159 15z m-1105 -32 c43 -31 55 -51 39 -67 -8 -8 -24 2 -55 34 -24 25 -44 48
-45 53 0 14 22 7 61 -20z m389 13 c0 -11 -10 -13 -40 -9 -31 4 -59 -1 -111
-22 -39 -15 -72 -25 -74 -23 -11 11 83 52 134 58 86 11 91 11 91 -4z m1307 -8
c-3 -8 -6 -5 -6 6 -1 11 2 17 5 13 3 -3 4 -12 1 -19z m-3720 -50 c-2 -13 -4
-3 -4 22 0 25 2 35 4 23 2 -13 2 -33 0 -45z m3680 40 c-3 -8 -6 -5 -6 6 -1 11
2 17 5 13 3 -3 4 -12 1 -19z m-1263 -23 c3 -8 1 -15 -4 -15 -6 0 -10 7 -10 15
0 8 2 15 4 15 2 0 6 -7 10 -15z m-34 -5 c8 -5 13 -10 10 -11 -3 0 -15 -2 -27
-5 -22 -4 -30 6 -16 19 9 9 15 9 33 -3z m-114 -37 c-7 -7 -26 7 -26 19 0 6 6
6 15 -2 9 -7 13 -15 11 -17z m34 -6 c0 -5 -4 -5 -10 -2 -5 3 -10 14 -10 23 0
15 2 15 10 2 5 -8 10 -19 10 -23z m25 23 c3 -5 2 -10 -4 -10 -5 0 -13 5 -16
10 -3 6 -2 10 4 10 5 0 13 -4 16 -10z m800 -2 c14 -6 25 -17 25 -25 0 -17 -4
-16 -42 3 -21 11 -44 14 -72 10 -38 -6 -40 -5 -22 9 24 18 75 19 111 3z m542
-10 c-3 -8 -6 -5 -6 6 -1 11 2 17 5 13 3 -3 4 -12 1 -19z m40 0 c-3 -8 -6 -5
-6 6 -1 11 2 17 5 13 3 -3 4 -12 1 -19z m-3750 -60 c-2 -13 -4 -3 -4 22 0 25
2 35 4 23 2 -13 2 -33 0 -45z m2234 41 c11 -11 18 -23 15 -26 -9 -9 -34 5 -46
26 -14 28 3 28 31 0z m43 -11 c-4 -6 -10 -5 -15 3 -14 22 -10 33 6 19 8 -7 12
-17 9 -22z m1423 -30 c-3 -8 -6 -5 -6 6 -1 11 2 17 5 13 3 -3 4 -12 1 -19z
m652 13 c9 -6 4 -10 -18 -13 -24 -4 -28 -2 -20 9 13 15 19 16 38 4z m64 2 c-7
-2 -21 -2 -30 0 -10 3 -4 5 12 5 17 0 24 -2 18 -5z m478 -15 c26 -19 45 -23
137 -26 140 -4 160 -14 45 -22 -51 -4 -99 -12 -107 -19 -12 -10 -20 -9 -40 4
-64 42 -36 0 74 -114 l120 -123 -102 55 c-120 64 -242 117 -269 117 -10 0 -38
-8 -61 -19 -47 -20 -108 -41 -108 -36 0 6 138 84 188 105 42 18 51 26 47 41
-4 10 -2 27 4 36 8 14 11 15 11 3 0 -12 3 -11 11 3 13 22 14 22 50 -5z m-2415
3 c-3 -4 -27 -11 -53 -14 -27 -3 -68 -9 -93 -13 -60 -9 -45 4 22 21 62 15 131
19 124 6z m1261 -23 c-3 -7 -5 -2 -5 12 0 14 2 19 5 13 2 -7 2 -19 0 -25z
m-576 7 c28 -15 32 -35 7 -35 -14 0 -48 30 -48 42 0 11 7 10 41 -7z m-3114
-82 c-2 -16 -4 -3 -4 27 0 30 2 43 4 28 2 -16 2 -40 0 -55z m4200 61 c-3 -3
-12 -4 -19 -1 -8 3 -5 6 6 6 11 1 17 -2 13 -5z m150 -5 c-11 -6 -53 -12 -95
-14 -60 -2 -69 -1 -42 6 19 5 44 7 55 4 12 -2 34 0 50 4 41 13 53 12 32 0z
m223 1 c21 -6 22 -8 8 -14 -9 -4 -26 -3 -37 4 -12 6 -38 8 -59 5 -27 -5 -33
-4 -22 4 17 12 73 13 110 1z m-401 -26 c2 -2 -12 -4 -33 -4 -22 0 -35 4 -31
10 5 9 52 4 64 -6z m-492 -61 c-3 -10 -5 -2 -5 17 0 19 2 27 5 18 2 -10 2 -26
0 -35z m-567 27 c8 -5 12 -11 9 -14 -3 -3 -14 1 -25 9 -21 16 -8 20 16 5z
m-3153 -77 c-2 -16 -4 -5 -4 22 0 28 2 40 4 28 2 -13 2 -35 0 -50z m2509 56
c3 -6 0 -15 -7 -20 -8 -5 -14 -19 -14 -31 0 -14 -7 -24 -19 -26 -17 -4 -18 0
-13 33 5 31 3 37 -16 45 -18 7 -15 9 20 9 23 1 45 -4 49 -10z m1151 -11 c-3
-8 -6 -5 -6 6 -1 11 2 17 5 13 3 -3 4 -12 1 -19z m-3480 -14 c-3 -3 9 -18 26
-34 18 -16 34 -24 37 -20 3 5 12 5 20 0 24 -15 -16 -24 -58 -14 -30 7 -37 15
-43 42 -5 25 -3 32 9 32 8 0 13 -3 9 -6z m2217 -35 c-7 -12 -31 -11 -56 2 -21
11 -21 12 3 24 20 11 27 11 41 -2 10 -9 15 -20 12 -24z m705 -16 c1 -1 0 -7
-4 -13 -8 -13 -40 12 -57 43 -8 16 -5 15 24 -5 18 -12 35 -24 37 -25z m-4240
-7 c5 -12 17 -62 26 -109 16 -80 16 -89 1 -121 -9 -19 -24 -36 -34 -38 -13 -3
-12 -5 6 -10 13 -4 21 -4 18 -1 -12 12 37 63 79 82 79 35 91 33 18 -4 -40 -20
-73 -39 -73 -43 0 -4 10 -12 23 -17 12 -6 23 -16 23 -22 1 -7 2 -17 3 -22 0
-5 9 -11 19 -14 9 -2 26 -8 37 -11 11 -4 3 2 -18 14 -51 28 -42 35 12 10 25
-13 39 -25 35 -32 -4 -7 -3 -8 4 -4 9 5 92 -39 92 -50 0 -1 -19 5 -42 15 -24
10 -96 37 -160 61 -76 27 -115 46 -111 53 4 6 6 73 4 149 -2 121 -1 138 13
138 9 0 21 -11 25 -24z m4848 -38 c-2 -13 -4 -3 -4 22 0 25 2 35 4 23 2 -13 2
-33 0 -45z m-1672 13 c-5 -29 -1 -48 14 -77 22 -41 16 -53 -19 -34 -39 21 -54
105 -24 134 26 27 36 19 29 -23z m980 -11 c3 -5 3 -15 0 -21 -8 -12 -40 14
-57 44 -9 17 -8 17 21 3 16 -9 33 -20 36 -26z m-880 -32 c10 -68 15 -78 36
-78 15 0 19 7 19 34 0 18 6 39 14 45 11 9 14 4 19 -24 3 -19 16 -48 27 -63
l22 -27 -28 -3 c-17 -2 -32 2 -39 12 -10 13 -13 13 -26 1 -40 -40 -89 32 -75
109 9 48 23 45 31 -6z m727 -2 c19 -22 24 -66 9 -66 -5 0 -14 14 -20 32 -6 18
-21 43 -34 56 l-22 25 25 -13 c14 -7 33 -22 42 -34z m84 -1 c16 -24 11 -51 -7
-39 -5 3 -18 23 -30 45 l-20 40 20 -11 c12 -6 28 -22 37 -35z m-603 -25 c-3
-11 -1 -20 5 -20 6 0 13 -8 16 -18 4 -10 15 -28 27 -40 l20 -22 -23 0 c-27 0
-83 57 -80 80 5 30 12 40 26 40 9 0 12 -7 9 -20z m101 -20 c4 -25 14 -43 26
-50 29 -16 25 -30 -9 -30 -25 0 -31 6 -41 34 -11 34 -5 86 10 86 4 0 10 -18
14 -40z m75 -6 c7 -28 8 -51 3 -56 -14 -14 -30 13 -38 60 -5 34 -4 42 9 42 9
0 19 -17 26 -46z m169 21 c7 -14 19 -28 27 -31 22 -9 18 -34 -4 -34 -24 0 -51
36 -51 67 0 30 14 29 28 -2z m-83 -21 c29 -38 23 -65 -8 -42 -18 14 -41 78
-27 78 4 0 20 -16 35 -36z m175 -5 c13 -24 13 -29 -4 -29 -8 0 -19 13 -24 29
-9 25 -8 29 4 24 8 -3 19 -14 24 -24z m940 6 c0 -8 -4 -15 -10 -15 -5 0 -7 7
-4 15 4 8 8 15 10 15 2 0 4 -7 4 -15z m-4463 -37 c-6 -4 -34 -12 -62 -19 -27
-6 -82 -27 -122 -45 -74 -35 -98 -40 -121 -26 -8 6 42 26 135 56 82 27 152 52
157 57 6 5 13 4 17 -3 5 -7 3 -16 -4 -20z m-767 -12 c0 -3 -4 -8 -10 -11 -5
-3 -10 -1 -10 4 0 6 5 11 10 11 6 0 10 -2 10 -4z m1557 -58 c-2 -13 -4 -5 -4
17 -1 22 1 32 4 23 2 -10 2 -28 0 -40z m-1522 32 c3 -5 2 -10 -4 -10 -5 0 -13
5 -16 10 -3 6 -2 10 4 10 5 0 13 -4 16 -10z m1081 -14 c22 -33 54 -99 51 -102
-6 -6 -114 54 -122 67 -3 5 -1 18 5 29 8 16 17 19 38 14 15 -4 27 -7 28 -8z
m-858 -31 c-3 -3 -9 2 -12 12 -6 14 -5 15 5 6 7 -7 10 -15 7 -18z m1300 -72
c9 -7 12 -16 9 -20 -9 -9 -37 27 -36 47 1 13 1 13 6 0 3 -8 12 -21 21 -27z
m-1224 -8 c18 -14 17 -15 -24 -15 -41 0 -42 1 -24 15 10 8 21 14 24 14 3 0 14
-6 24 -14z m396 -132 c0 -7 -7 -13 -16 -13 -8 0 -13 4 -9 9 3 5 -9 21 -27 36
l-33 27 42 -24 c24 -13 43 -29 43 -35z"/>
<path d="M2653 6158 c-22 -11 -59 -75 -49 -85 3 -3 22 5 43 18 20 13 55 26 78
29 32 4 41 10 43 28 3 20 0 22 -45 21 -26 0 -58 -5 -70 -11z"/>
<path d="M2680 6092 c-30 -24 -38 -87 -14 -113 22 -24 45 -24 75 -1 13 10 32
21 42 25 25 9 22 59 -6 85 -28 27 -67 28 -97 4z m22 -84 c-9 -9 -12 -7 -12 12
0 19 3 21 12 12 9 -9 9 -15 0 -24z"/>
<path d="M2928 5523 c-32 -2 -58 -8 -58 -13 0 -11 92 -13 128 -4 26 7 30 25 5
22 -10 -1 -44 -3 -75 -5z"/>
<path d="M859 4504 c-26 -13 -57 -60 -46 -70 7 -8 107 54 107 66 0 15 -37 17
-61 4z"/>
<path d="M872 4438 c-14 -14 -16 -38 -4 -38 5 0 7 -13 4 -30 -5 -34 19 -50 48
-32 15 9 21 7 34 -13 18 -27 47 -32 65 -12 8 11 6 18 -9 32 -11 10 -31 38 -45
61 -21 35 -31 44 -53 44 -16 0 -33 -5 -40 -12z"/>
<path d="M8584 4635 c26 -19 42 -19 26 0 -7 8 -20 15 -29 15 -13 -1 -13 -3 3
-15z"/>
<path d="M8130 4301 c0 -15 65 -62 69 -50 2 6 -7 21 -20 35 -23 24 -49 32 -49
15z"/>
<path d="M8082 4165 c-12 -26 -20 -51 -17 -56 19 -30 78 27 73 70 -5 43 -32
36 -56 -14z"/>
<path d="M8225 3520 c3 -5 15 -10 26 -10 11 0 17 5 14 10 -3 6 -15 10 -26 10
-11 0 -17 -4 -14 -10z"/>
<path d="M7039 4259 c-23 -19 -23 -20 -2 -10 12 6 25 16 28 21 10 16 -1 12
-26 -11z"/>
<path d="M6958 4184 c-33 -35 -53 -64 -45 -64 2 0 23 23 46 50 48 57 48 68 -1
14z"/>
<path d="M6312 4325 c-17 -37 -14 -45 4 -12 9 16 14 31 11 33 -2 2 -9 -7 -15
-21z"/>
<path d="M6141 3824 c0 -11 3 -14 6 -6 3 7 2 16 -1 19 -3 4 -6 -2 -5 -13z"/>
<path d="M6131 3784 c0 -11 3 -14 6 -6 3 7 2 16 -1 19 -3 4 -6 -2 -5 -13z"/>
<path d="M6121 3734 c0 -11 3 -14 6 -6 3 7 2 16 -1 19 -3 4 -6 -2 -5 -13z"/>
<path d="M6111 3623 c0 -34 2 -64 7 -66 4 -3 6 16 4 41 -5 80 -9 90 -11 25z"/>
<path d="M6448 3653 c12 -2 30 -2 40 0 9 3 -1 5 -23 4 -22 0 -30 -2 -17 -4z"/>
<path d="M6148 3543 c6 -2 18 -2 25 0 6 3 1 5 -13 5 -14 0 -19 -2 -12 -5z"/>
<path d="M7305 4170 c10 -11 20 -20 23 -20 3 0 -3 9 -13 20 -10 11 -20 20 -23
20 -3 0 3 -9 13 -20z"/>
<path d="M7198 4153 c7 -3 16 -2 19 1 4 3 -2 6 -13 5 -11 0 -14 -3 -6 -6z"/>
<path d="M7190 4131 c0 -6 8 -14 18 -18 9 -3 36 -14 59 -24 52 -23 50 -23 56
1 7 28 -6 35 -90 47 -29 4 -43 2 -43 -6z"/>
<path d="M7134 4116 c-3 -8 -4 -27 -2 -43 3 -23 5 -20 9 15 5 43 2 53 -7 28z"/>
<path d="M7380 4060 c6 -11 13 -20 16 -20 2 0 0 9 -6 20 -6 11 -13 20 -16 20
-2 0 0 -9 6 -20z"/>
<path d="M7350 4056 c0 -2 8 -10 18 -17 15 -13 16 -12 3 4 -13 16 -21 21 -21
13z"/>
<path d="M7230 4020 c19 -11 40 -19 45 -19 6 0 -6 8 -25 19 -19 11 -39 19 -45
19 -5 0 6 -8 25 -19z"/>
<path d="M7410 4010 c6 -11 13 -20 16 -20 2 0 0 9 -6 20 -6 11 -13 20 -16 20
-2 0 0 -9 6 -20z"/>
<path d="M6960 4000 c-6 -11 -8 -20 -6 -20 3 0 10 9 16 20 6 11 8 20 6 20 -3
0 -10 -9 -16 -20z"/>
<path d="M7203 3985 c0 -22 2 -30 4 -17 2 12 2 30 0 40 -3 9 -5 -1 -4 -23z"/>
<path d="M7333 3983 c9 -2 23 -2 30 0 6 3 -1 5 -18 5 -16 0 -22 -2 -12 -5z"/>
<path d="M7472 3895 c18 -35 34 -63 36 -61 4 5 -56 126 -63 126 -3 0 10 -29
27 -65z"/>
<path d="M7192 3900 c0 -14 2 -19 5 -12 2 6 2 18 0 25 -3 6 -5 1 -5 -13z"/>
<path d="M7182 3850 c0 -14 2 -19 5 -12 2 6 2 18 0 25 -3 6 -5 1 -5 -13z"/>
<path d="M7171 3804 c0 -11 3 -14 6 -6 3 7 2 16 -1 19 -3 4 -6 -2 -5 -13z"/>
<path d="M7161 3764 c0 -11 3 -14 6 -6 3 7 2 16 -1 19 -3 4 -6 -2 -5 -13z"/>
<path d="M7530 3775 c0 -5 5 -17 10 -25 5 -8 10 -10 10 -5 0 6 -5 17 -10 25
-5 8 -10 11 -10 5z"/>
<path d="M7591 3610 c0 -8 6 -28 14 -45 17 -39 18 -21 0 25 -7 19 -14 28 -14
20z"/>
<path d="M7052 3485 c-17 -36 -30 -65 -27 -65 7 0 67 121 63 126 -2 2 -18 -26
-36 -61z"/>
<path d="M7630 3505 c0 -5 5 -17 10 -25 5 -8 10 -10 10 -5 0 6 -5 17 -10 25
-5 8 -10 11 -10 5z"/>
<path d="M6525 3380 c-3 -6 1 -7 9 -4 18 7 21 14 7 14 -6 0 -13 -4 -16 -10z"/>
<path d="M6596 3368 c10 -14 21 -24 23 -22 3 3 -6 15 -18 27 l-24 22 19 -27z"/>
<path d="M6990 3370 c-6 -11 -8 -20 -6 -20 3 0 10 9 16 20 6 11 8 20 6 20 -3
0 -10 -9 -16 -20z"/>
<path d="M6919 3263 c-13 -16 -12 -17 4 -4 16 13 21 21 13 21 -2 0 -10 -8 -17
-17z"/>
<path d="M6884 3218 l-19 -23 23 19 c12 11 22 21 22 23 0 8 -8 2 -26 -19z"/>
<path d="M6759 3183 c-13 -16 -12 -17 4 -4 9 7 17 15 17 17 0 8 -8 3 -21 -13z"/>
<path d="M6834 3158 l-29 -33 33 29 c17 17 32 31 32 33 0 8 -8 1 -36 -29z"/>
<path d="M8470 3389 c0 -11 -5 -30 -11 -42 -10 -21 -10 -21 5 -3 15 18 22 66
11 66 -3 0 -5 -9 -5 -21z"/>
<path d="M9140 3330 c0 -5 7 -10 16 -10 8 0 12 5 9 10 -3 6 -10 10 -16 10 -5
0 -9 -4 -9 -10z"/>
<path d="M8680 3250 c0 -5 5 -10 10 -10 6 0 10 5 10 10 0 6 -4 10 -10 10 -5 0
-10 -4 -10 -10z"/>
<path d="M7312 2880 c0 -14 2 -19 5 -12 2 6 2 18 0 25 -3 6 -5 1 -5 -13z"/>
<path d="M7233 1723 c25 -7 21 -20 -10 -32 l-28 -11 30 6 c37 7 39 9 32 29 -4
8 -14 14 -24 14 -17 -1 -17 -2 0 -6z"/>
<path d="M7100 1710 c-21 -7 -21 -8 -5 -9 11 0 27 4 35 9 18 11 5 11 -30 0z"/>
<path d="M7168 1703 c6 -2 18 -2 25 0 6 3 1 5 -13 5 -14 0 -19 -2 -12 -5z"/>
<path d="M7118 1660 c-3 -14 -9 -34 -12 -45 -4 -11 0 -7 9 8 9 16 15 36 13 45
-3 12 -6 10 -10 -8z"/>
<path d="M7136 1635 c-9 -26 -7 -32 5 -12 6 10 9 21 6 23 -2 3 -7 -2 -11 -11z"/>
<path d="M7656 1613 c-8 -8 -8 -53 0 -53 11 0 44 21 44 28 0 11 -37 32 -44 25z
m23 -17 c9 -10 8 -15 -4 -20 -10 -4 -15 1 -15 14 0 24 4 25 19 6z"/>
<path d="M7300 1469 c0 -35 5 -71 10 -79 6 -10 7 11 3 60 -7 94 -13 103 -13
19z"/>
<path d="M7322 1470 c0 -14 2 -19 5 -12 2 6 2 18 0 25 -3 6 -5 1 -5 -13z"/>
<path d="M7290 1355 c0 -14 4 -25 9 -25 4 0 6 11 3 25 -2 14 -6 25 -8 25 -2 0
-4 -11 -4 -25z"/>
<path d="M7440 1336 c0 -2 7 -7 16 -10 8 -3 12 -2 9 4 -6 10 -25 14 -25 6z"/>
<path d="M7480 1314 c0 -2 11 -11 24 -20 19 -12 29 -13 43 -4 16 10 15 10 -4
5 -13 -4 -23 -2 -23 3 0 5 -9 12 -20 15 -11 3 -20 3 -20 1z"/>
<path d="M7361 1251 c-28 -15 -31 -19 -16 -25 10 -3 20 -4 23 -1 3 3 -1 5 -9
5 -8 1 2 9 21 20 19 11 31 19 25 19 -5 0 -25 -8 -44 -18z"/>
<path d="M7530 1194 c36 -37 61 -64 55 -62 -5 2 -36 17 -68 32 -32 15 -60 26
-61 25 -2 -2 40 -26 93 -52 l96 -48 -85 85 c-46 47 -87 86 -89 86 -3 0 24 -30
59 -66z"/>
<path d="M7390 1210 c8 -5 20 -10 25 -10 6 0 3 5 -5 10 -8 5 -19 10 -25 10 -5
0 -3 -5 5 -10z"/>
<path d="M1461 1054 c0 -11 3 -14 6 -6 3 7 2 16 -1 19 -3 4 -6 -2 -5 -13z"/>
<path d="M1470 987 c0 -20 4 -37 10 -37 5 0 7 14 3 33 -8 45 -13 47 -13 4z"/>
<path d="M1605 905 c-25 -12 -26 -14 -5 -9 28 7 60 23 45 23 -5 0 -23 -6 -40
-14z"/>
</g>
</svg>
